<svg xmlns="http://www.w3.org/2000/svg" xmlns:xlink="http://www.w3.org/1999/xlink" fill="none" version="1.1" width="48" height="48" viewBox="0 0 48 48"><defs><clipPath id="master_svg0_1_313"><rect x="14" y="14" width="20" height="20" rx="0"/></clipPath></defs><g><rect x="0" y="0" width="48" height="48" rx="24" fill="#16BC88" fill-opacity="0.10000000149011612" style="mix-blend-mode:passthrough"/><g><rect x="14" y="10" width="20" height="28" rx="0" fill="#000000" fill-opacity="0" style="mix-blend-mode:passthrough"/><g clip-path="url(#master_svg0_1_313)"><g transform="matrix(1,0,0,-1,0,68.859375)"><g><path d="M31.9297,52.3984875L31.3047,54.156287500000005L31.9297,52.3984875L31.3047,54.156287500000005Q31.1484,54.4296875,30.875,54.4296875Q30.6016,54.4296875,30.4844,54.156287500000005L29.8203,52.3984875L28.023400000000002,51.7343875Q27.75,51.6171875,27.75,51.3046875Q27.75,51.031287500000005,28.023400000000002,50.9140875L29.8203,50.2499875L30.4844,48.4921875Q30.6016,48.2187875,30.875,48.1796875Q31.1875,48.2187875,31.3047,48.4921875L31.9297,50.2499875L33.726600000000005,50.9140875Q33.960899999999995,51.031287500000005,34,51.3046875Q33.960899999999995,51.6171875,33.726600000000005,51.7343875L31.9297,52.3984875ZM26.773400000000002,50.3280875Q26.3828,50.6796875,25.875,50.6796875Q25.3672,50.6796875,24.976599999999998,50.3280875L24.898400000000002,50.2108875Q23.57031,50.6796875,22.125,50.6796875Q18.6875,50.6015875,16.38281,48.2968875Q14.078125,45.9921875,14,42.5546875Q14.078125,39.1171875,16.38281,36.8124975Q18.6875,34.5078125,22.125,34.4296875Q25.5625,34.5078125,27.8672,36.8124975Q30.1719,39.1171875,30.25,42.5546875Q30.25,43.9999975,29.7812,45.2890875L29.898400000000002,45.4062875Q30.25,45.7968875,30.25,46.3046875Q30.25,46.8124875,29.898400000000002,47.2030875L26.773400000000002,50.3280875ZM21.8125,46.9296875Q20.09375,46.8905875,18.92188,45.7577875Q17.78906,44.5858875,17.75,42.8671875L17.75,42.5546875Q17.71094,41.9687475,17.125,41.9296875Q16.53906,41.9687475,16.5,42.5546875L16.5,42.8671875Q16.53906,45.1327875,18.0625,46.6171875Q19.54688,48.1405875,21.8125,48.1796875L22.125,48.1796875Q22.71094,48.1405875,22.75,47.5546875Q22.71094,46.9687875,22.125,46.9296875L21.8125,46.9296875Z" fill="#16BC88" fill-opacity="1" style="mix-blend-mode:passthrough"/></g></g></g></g></g></svg>