<svg xmlns="http://www.w3.org/2000/svg" xmlns:xlink="http://www.w3.org/1999/xlink" fill="none" version="1.1" width="48" height="48" viewBox="0 0 48 48"><defs><clipPath id="master_svg0_1_308"><rect x="15.25" y="14" width="17.5" height="20" rx="0"/></clipPath></defs><g><rect x="0" y="0" width="48" height="48" rx="24" fill="#16BC88" fill-opacity="0.10000000149011612" style="mix-blend-mode:passthrough"/><g><rect x="15.25" y="10" width="17.5" height="28" rx="0" fill="#000000" fill-opacity="0" style="mix-blend-mode:passthrough"/><g clip-path="url(#master_svg0_1_308)"><g transform="matrix(1,0,0,-1,0,68.859375)"><g><path d="M24,53.8046875Q23.64844,53.843787500000005,23.41406,54.0390875Q23.375,54.0390875,23.375,54.0390875Q23.10156,54.3515875,22.125,54.4296875Q21.22656,54.390587499999995,20.60156,53.3358875Q19.9375,52.3202875,19.54688,50.953087499999995Q18.14062,50.6796875,17.32031,50.2890875Q16.5,49.8984875,16.5,49.4296875Q16.61719,48.5702875,19.03906,48.0234875Q19,47.7890875,19,47.5546875Q19,46.5390875,19.35156,45.6796875L17.00781,45.6796875Q16.53906,45.6405875,16.5,45.1718875Q16.5,45.0546875,16.53906,44.9765875L18.0625,41.1874975Q16.77344,40.2109375,16.03125,38.7656275Q15.25,37.3203075,15.25,35.6015675Q15.25,35.0937495,15.601562,34.7812495Q15.914062,34.4296875,16.42188,34.4296875L31.5781,34.4296875Q32.085899999999995,34.4296875,32.398399999999995,34.7812495Q32.75,35.0937495,32.75,35.6015675Q32.75,37.3203075,31.9688,38.7656275Q31.226599999999998,40.2109375,29.9375,41.1874975L31.4609,44.9765875Q31.5,45.0546875,31.5,45.1718875Q31.4609,45.6405875,30.9922,45.6796875L28.648400000000002,45.6796875Q29,46.5390875,29,47.5546875Q29,47.7890875,28.960900000000002,48.0234875Q31.3828,48.5702875,31.5,49.4296875Q31.5,49.8984875,30.6797,50.2890875Q29.8594,50.6796875,28.4531,50.953087499999995Q28.0625,52.3202875,27.398400000000002,53.3358875Q26.773400000000002,54.390587499999995,25.875,54.4296875Q24.89844,54.3515875,24.625,54.0390875Q24.58594,54.0390875,24.58594,54.0390875Q24.35156,53.843787500000005,24,53.8046875ZM26.1875,45.6796875L25.7188,45.6796875L26.1875,45.6796875L25.7188,45.6796875Q24.66406,45.7187875,24.27344,46.6952875Q24.19531,46.8905875,24,46.8905875Q23.80469,46.8905875,23.72656,46.6952875Q23.33594,45.7187875,22.32031,45.6796875L21.8125,45.6796875Q21.14844,45.6796875,20.71875,46.1484875Q20.25,46.5780875,20.25,47.2421875L20.25,47.7890875Q21.92969,47.5546875,24,47.5546875Q26.0703,47.5546875,27.75,47.7890875L27.75,47.2421875Q27.75,46.5780875,27.2812,46.1484875Q26.851599999999998,45.6796875,26.1875,45.6796875ZM22.75,41.9296875L23.375,40.6796875L22.75,41.9296875L23.375,40.6796875L22.125,35.6796875L20.25,43.1796875L22.75,41.9296875ZM27.75,43.1796875L25.875,35.6796875L27.75,43.1796875L25.875,35.6796875L24.625,40.6796875L25.25,41.9296875L27.75,43.1796875Z" fill="#16BC88" fill-opacity="1" style="mix-blend-mode:passthrough"/></g></g></g></g></g></svg>