<svg xmlns="http://www.w3.org/2000/svg" xmlns:xlink="http://www.w3.org/1999/xlink" fill="none" version="1.1" width="48" height="48" viewBox="0 0 48 48"><defs><clipPath id="master_svg0_1_303"><rect x="15.25" y="14" width="17.5" height="20" rx="0"/></clipPath></defs><g><rect x="0" y="0" width="48" height="48" rx="24" fill="#16BC88" fill-opacity="0.10000000149011612" style="mix-blend-mode:passthrough"/><g><rect x="15.25" y="10" width="17.5" height="28" rx="0" fill="#000000" fill-opacity="0" style="mix-blend-mode:passthrough"/><g clip-path="url(#master_svg0_1_303)"><g transform="matrix(1,0,0,-1,0,68.859375)"><g><path d="M20.875,48.8046875L20.875,46.9296875L20.875,48.8046875L20.875,46.9296875L27.125,46.9296875L27.125,48.8046875Q27.085900000000002,50.1327875,26.226599999999998,51.031287500000005Q25.3281,51.890587499999995,24,51.9296875Q22.67188,51.890587499999995,21.77344,51.031287500000005Q20.91406,50.1327875,20.875,48.8046875ZM18.375,46.9296875L18.375,48.8046875L18.375,46.9296875L18.375,48.8046875Q18.45312,51.1874875,20.01562,52.7890875Q21.61719,54.3515875,24,54.4296875Q26.3828,54.3515875,27.9844,52.7890875Q29.5469,51.1874875,29.625,48.8046875L29.625,46.9296875L30.25,46.9296875Q31.3047,46.8905875,32.0078,46.1874875Q32.710899999999995,45.4843875,32.75,44.4296875L32.75,36.9296875Q32.710899999999995,35.8749975,32.0078,35.1718755Q31.3047,34.46875,30.25,34.4296875L17.75,34.4296875Q16.69531,34.46875,15.992188,35.1718755Q15.2890625,35.8749975,15.25,36.9296875L15.25,44.4296875Q15.2890625,45.4843875,15.992188,46.1874875Q16.69531,46.8905875,17.75,46.9296875L18.375,46.9296875Z" fill="#16BC88" fill-opacity="1" style="mix-blend-mode:passthrough"/></g></g></g></g></g></svg>