<svg xmlns="http://www.w3.org/2000/svg" xmlns:xlink="http://www.w3.org/1999/xlink" fill="none" version="1.1" width="48" height="48" viewBox="0 0 48 48"><defs><clipPath id="master_svg0_1_318"><rect x="14" y="14" width="20" height="20" rx="0"/></clipPath></defs><g><rect x="0" y="0" width="48" height="48" rx="24" fill="#16BC88" fill-opacity="0.10000000149011612" style="mix-blend-mode:passthrough"/><g><rect x="14" y="10" width="20" height="28" rx="0" fill="#000000" fill-opacity="0" style="mix-blend-mode:passthrough"/><g clip-path="url(#master_svg0_1_318)"><g transform="matrix(1,0,0,-1,0,68.859375)"><g><path d="M27.125,40.6796875Q30.0547,40.7578075,31.9688,42.7109375Q33.9219,44.6249875,34,47.5546875Q33.9219,50.4843875,31.9688,52.3984875Q30.0547,54.3515875,27.125,54.4296875Q24.1953,54.3515875,22.28125,52.3984875Q20.32812,50.4843875,20.25,47.5546875Q20.25,46.4608875,20.5625,45.4452875L14.273438,39.1562475Q14,38.8828075,14,38.4921875L14,35.3671875Q14.078125,34.5078125,14.9375,34.4296875L18.0625,34.4296875Q18.92188,34.5078125,19,35.3671875L19,36.9296875L20.5625,36.9296875Q21.42188,37.0078075,21.5,37.8671875L21.5,39.4296875L23.0625,39.4296875Q23.45312,39.4296875,23.72656,39.7031275L25.0156,40.9921875Q26.0312,40.6796875,27.125,40.6796875ZM28.6875,50.6796875Q29.585900000000002,50.640587499999995,30.0547,49.8984875Q30.4453,49.1171875,30.0547,48.3358875Q29.585900000000002,47.5937875,28.6875,47.5546875Q27.789099999999998,47.5937875,27.3203,48.3358875Q26.9297,49.1171875,27.3203,49.8984875Q27.789099999999998,50.640587499999995,28.6875,50.6796875Z" fill="#16BC88" fill-opacity="1" style="mix-blend-mode:passthrough"/></g></g></g></g></g></svg>