<svg width="true" height="true" viewBox="0 0 512 512" fill="none" xmlns="http://www.w3.org/2000/svg" xmlns:xlink="http://www.w3.org/1999/xlink" class="h-full w-full" id="iconWithBackground"><rect id="r4" width="512" height="512" x="0" y="0" rx="80" fill="url(#linearGradient-iconWithBackground)" stroke="#000000" stroke-width="0" stroke-opacity="100%" paint-order="stroke"/><defs><linearGradient id="linearGradient-iconWithBackground" gradientUnits="userSpaceOnUse" gradientTransform="rotate(0)" style="transform-origin:center center"><stop stop-color="#0B865F"/><stop offset="1" stop-color="#16bc88"/></linearGradient><radialGradient id="glare" cx="0" cy="0" r="1" gradientUnits="userSpaceOnUse" gradientTransform="translate(256) rotate(90) scale(512)"><stop stop-color="white"/><stop offset="1" stop-color="white" stop-opacity="0"/></radialGradient><clipPath id="clip"><use xlink:href="#r4"/></clipPath></defs><svg xmlns="http://www.w3.org/2000/svg" width="340" height="340" viewBox="0 0 768 1024" x="86" y="86"><path fill="#ffffff" d="M704.5 320q-26.5 0-45.5-18.5T640 256q0-53-37.5-90.5T512 128H257q-53 0-90.5 37.5T129 256v64q0 53 37.5 90.5T257 448h255q106 0 181 75t75 181v64q0 106-75 181t-181 75H256q-106 0-181-75T0 768q0-26 18.5-45t45-19t45.5 19t19 45q0 53 37.5 90.5T256 896h256q53 0 90.5-37.5T640 768v-64q0-53-37.5-90.5T512 576H256q-106 0-180.5-75T1 320v-64Q1 150 76 75T257 0h255q106 0 181 75t75 181q0 27-18.5 45.5t-45 18.5z"/></svg></svg>